<mxfile host="app.diagrams.net" agent="Mozilla/5.0 (Windows NT 10.0; Win64; x64; rv:142.0) Gecko/20100101 Firefox/142.0" version="28.1.2">
  <diagram name="Page-1" id="NEfzoQ-RzewGu70Z7AuX">
    <mxGraphModel dx="1425" dy="791" grid="1" gridSize="10" guides="1" tooltips="1" connect="1" arrows="1" fold="1" page="1" pageScale="1" pageWidth="827" pageHeight="1169" math="0" shadow="0">
      <root>
        <mxCell id="0" />
        <mxCell id="1" parent="0" />
        <mxCell id="Sc-W82_MltwbpXIWxwOa-8" value="" style="edgeStyle=orthogonalEdgeStyle;rounded=0;orthogonalLoop=1;jettySize=auto;html=1;" edge="1" parent="1" source="Sc-W82_MltwbpXIWxwOa-1" target="Sc-W82_MltwbpXIWxwOa-2">
          <mxGeometry relative="1" as="geometry" />
        </mxCell>
        <mxCell id="Sc-W82_MltwbpXIWxwOa-1" value="Application" style="rounded=1;whiteSpace=wrap;html=1;" vertex="1" parent="1">
          <mxGeometry x="310" y="50" width="120" height="60" as="geometry" />
        </mxCell>
        <mxCell id="Sc-W82_MltwbpXIWxwOa-9" value="" style="edgeStyle=orthogonalEdgeStyle;rounded=0;orthogonalLoop=1;jettySize=auto;html=1;" edge="1" parent="1" source="Sc-W82_MltwbpXIWxwOa-2" target="Sc-W82_MltwbpXIWxwOa-3">
          <mxGeometry relative="1" as="geometry" />
        </mxCell>
        <mxCell id="Sc-W82_MltwbpXIWxwOa-2" value="API" style="rounded=1;whiteSpace=wrap;html=1;" vertex="1" parent="1">
          <mxGeometry x="310" y="150" width="120" height="60" as="geometry" />
        </mxCell>
        <mxCell id="Sc-W82_MltwbpXIWxwOa-10" value="" style="edgeStyle=orthogonalEdgeStyle;rounded=0;orthogonalLoop=1;jettySize=auto;html=1;" edge="1" parent="1" source="Sc-W82_MltwbpXIWxwOa-3" target="Sc-W82_MltwbpXIWxwOa-4">
          <mxGeometry relative="1" as="geometry" />
        </mxCell>
        <mxCell id="Sc-W82_MltwbpXIWxwOa-11" style="edgeStyle=orthogonalEdgeStyle;rounded=0;orthogonalLoop=1;jettySize=auto;html=1;exitX=0;exitY=0.5;exitDx=0;exitDy=0;entryX=0.5;entryY=0;entryDx=0;entryDy=0;" edge="1" parent="1" source="Sc-W82_MltwbpXIWxwOa-3" target="Sc-W82_MltwbpXIWxwOa-5">
          <mxGeometry relative="1" as="geometry" />
        </mxCell>
        <mxCell id="Sc-W82_MltwbpXIWxwOa-12" style="edgeStyle=orthogonalEdgeStyle;rounded=0;orthogonalLoop=1;jettySize=auto;html=1;exitX=1;exitY=0.5;exitDx=0;exitDy=0;entryX=0.5;entryY=0;entryDx=0;entryDy=0;" edge="1" parent="1" source="Sc-W82_MltwbpXIWxwOa-3" target="Sc-W82_MltwbpXIWxwOa-6">
          <mxGeometry relative="1" as="geometry" />
        </mxCell>
        <mxCell id="Sc-W82_MltwbpXIWxwOa-3" value="Registration" style="rounded=1;whiteSpace=wrap;html=1;" vertex="1" parent="1">
          <mxGeometry x="310" y="250" width="120" height="60" as="geometry" />
        </mxCell>
        <mxCell id="Sc-W82_MltwbpXIWxwOa-4" value="Listener" style="rounded=1;whiteSpace=wrap;html=1;" vertex="1" parent="1">
          <mxGeometry x="310" y="350" width="120" height="60" as="geometry" />
        </mxCell>
        <mxCell id="Sc-W82_MltwbpXIWxwOa-5" value="Configuration" style="rounded=1;whiteSpace=wrap;html=1;" vertex="1" parent="1">
          <mxGeometry x="140" y="350" width="120" height="60" as="geometry" />
        </mxCell>
        <mxCell id="Sc-W82_MltwbpXIWxwOa-13" value="" style="edgeStyle=orthogonalEdgeStyle;rounded=0;orthogonalLoop=1;jettySize=auto;html=1;" edge="1" parent="1" source="Sc-W82_MltwbpXIWxwOa-6" target="Sc-W82_MltwbpXIWxwOa-7">
          <mxGeometry relative="1" as="geometry" />
        </mxCell>
        <mxCell id="Sc-W82_MltwbpXIWxwOa-6" value="Connection" style="rounded=1;whiteSpace=wrap;html=1;" vertex="1" parent="1">
          <mxGeometry x="480" y="350" width="120" height="60" as="geometry" />
        </mxCell>
        <mxCell id="Sc-W82_MltwbpXIWxwOa-7" value="Stream" style="rounded=1;whiteSpace=wrap;html=1;" vertex="1" parent="1">
          <mxGeometry x="480" y="450" width="120" height="60" as="geometry" />
        </mxCell>
      </root>
    </mxGraphModel>
  </diagram>
</mxfile>
